<svg width="14" height="14" viewBox="0 0 14 14" fill="none" xmlns="http://www.w3.org/2000/svg">
<path fill-rule="evenodd" clip-rule="evenodd" d="M5.51598 1.87146C6.05116 1.67051 6.62152 1.58015 7.19261 1.60583C9.77993 1.72624 11.5861 4.23308 11.1444 6.88353L11.1444 6.88366C10.6366 9.93562 7.99306 11.748 7.07971 12.2884C7.05794 12.3005 7.0334 12.3069 7.00844 12.3069C6.98284 12.3069 6.9577 12.3002 6.93552 12.2874L6.71677 12.6663L6.93589 12.2876C6.4426 12.0022 5.39278 11.3114 4.47072 10.2236C3.55135 9.13898 2.77344 7.67809 2.77344 5.83546L2.77344 5.83501C2.77286 5.26325 2.88823 4.6973 3.11256 4.17138C3.3369 3.64547 3.66555 3.1705 4.07864 2.77519C4.49174 2.37988 4.98071 2.07245 5.51598 1.87146ZM7.23229 0.731733C6.54293 0.70068 5.85443 0.809734 5.20841 1.0523C4.56238 1.29487 3.97225 1.66592 3.47369 2.14301C2.97512 2.62011 2.57848 3.19334 2.30773 3.82807C2.037 4.46273 1.89777 5.14569 1.89844 5.83568V5.83546H2.33594L1.89844 5.8359L1.89844 5.83568C1.8985 7.9421 2.79181 9.59614 3.80324 10.7894C4.81202 11.9795 5.95261 12.7296 6.49765 13.045L6.49802 13.0452C6.65321 13.1348 6.82924 13.1819 7.00844 13.1819C7.18764 13.1819 7.36367 13.1348 7.51886 13.0452L7.51887 13.0452L7.52276 13.0429C8.4665 12.485 11.4307 10.4945 12.0075 7.02726C12.5223 3.93786 10.4204 0.879866 7.23291 0.731761L7.23229 0.731733ZM5.6901 5.83543C5.6901 5.11056 6.27773 4.52293 7.0026 4.52293C7.72748 4.52293 8.3151 5.11056 8.3151 5.83543C8.3151 6.5603 7.72748 7.14793 7.0026 7.14793C6.27773 7.14793 5.6901 6.5603 5.6901 5.83543ZM7.0026 3.64793C5.79448 3.64793 4.8151 4.62731 4.8151 5.83543C4.8151 7.04355 5.79448 8.02293 7.0026 8.02293C8.21073 8.02293 9.1901 7.04355 9.1901 5.83543C9.1901 4.62731 8.21073 3.64793 7.0026 3.64793Z" fill="#D0DF00"/>
</svg>
