<svg width="35" height="35" viewBox="0 0 35 35" fill="none" xmlns="http://www.w3.org/2000/svg">
<path fill-rule="evenodd" clip-rule="evenodd" d="M17.3698 3.94531C10.1326 3.94531 4.26562 9.81225 4.26562 17.0495C4.26562 24.2867 10.1326 30.1536 17.3698 30.1536C24.607 30.1536 30.474 24.2867 30.474 17.0495C30.474 9.81225 24.607 3.94531 17.3698 3.94531ZM2.14062 17.0495C2.14062 8.63864 8.95896 1.82031 17.3698 1.82031C25.7806 1.82031 32.599 8.63864 32.599 17.0495C32.599 25.4603 25.7806 32.2786 17.3698 32.2786C8.95896 32.2786 2.14062 25.4603 2.14062 17.0495Z" fill="#D0DF00"/>
<path fill-rule="evenodd" clip-rule="evenodd" d="M14.3494 7.42674C13.3855 9.83634 12.7656 13.238 12.7656 17.0495C12.7656 20.8609 13.3855 24.2626 14.3494 26.6722C14.8325 27.88 15.3811 28.786 15.936 29.3728C16.4888 29.9573 16.9737 30.1536 17.3698 30.1536C17.7659 30.1536 18.2508 29.9573 18.8035 29.3728C19.3585 28.786 19.9071 27.88 20.3902 26.6722C21.3541 24.2626 21.974 20.8609 21.974 17.0495C21.974 13.238 21.3541 9.83634 20.3902 7.42674C19.9071 6.21899 19.3585 5.31291 18.8035 4.72615C18.2508 4.14163 17.7659 3.94531 17.3698 3.94531C16.9737 3.94531 16.4888 4.14163 15.936 4.72615C15.3811 5.31291 14.8325 6.21899 14.3494 7.42674ZM14.3921 3.26605C15.1952 2.41682 16.2011 1.82031 17.3698 1.82031C18.5385 1.82031 19.5444 2.41682 20.3475 3.26605C21.1485 4.11303 21.8209 5.28162 22.3632 6.63753C23.4503 9.35525 24.099 13.0369 24.099 17.0495C24.099 21.0621 23.4503 24.7437 22.3632 27.4614C21.8209 28.8173 21.1485 29.9859 20.3475 30.8329C19.5444 31.6821 18.5385 32.2786 17.3698 32.2786C16.2011 32.2786 15.1952 31.6821 14.3921 30.8329C13.5911 29.9859 12.9187 28.8173 12.3763 27.4614C11.2893 24.7437 10.6406 21.0621 10.6406 17.0495C10.6406 13.0369 11.2893 9.35525 12.3763 6.63753C12.9187 5.28162 13.5911 4.11303 14.3921 3.26605Z" fill="#D0DF00"/>
<path fill-rule="evenodd" clip-rule="evenodd" d="M5.04646 15.6157C4.46195 16.1685 4.26562 16.6534 4.26562 17.0495C4.26562 17.4456 4.46195 17.9305 5.04646 18.4832C5.63322 19.0381 6.5393 19.5868 7.74705 20.0699C10.1566 21.0338 13.5583 21.6536 17.3698 21.6536C21.1812 21.6536 24.5829 21.0338 26.9925 20.0699C28.2003 19.5868 29.1064 19.0381 29.6931 18.4832C30.2776 17.9305 30.474 17.4456 30.474 17.0495C30.474 16.6534 30.2776 16.1685 29.6931 15.6157C29.1064 15.0608 28.2003 14.5121 26.9925 14.029C24.5829 13.0652 21.1812 12.4453 17.3698 12.4453C13.5583 12.4453 10.1566 13.0652 7.74705 14.029C6.5393 14.5121 5.63322 15.0608 5.04646 15.6157ZM6.95784 12.056C9.67557 10.9689 13.3572 10.3203 17.3698 10.3203C21.3824 10.3203 25.064 10.9689 27.7817 12.056C29.1377 12.5984 30.3062 13.2708 31.1532 14.0718C32.0025 14.8749 32.599 15.8808 32.599 17.0495C32.599 18.2182 32.0025 19.224 31.1532 20.0272C30.3062 20.8282 29.1377 21.5006 27.7817 22.0429C25.064 23.13 21.3824 23.7786 17.3698 23.7786C13.3572 23.7786 9.67557 23.13 6.95784 22.0429C5.60193 21.5006 4.43334 20.8282 3.58636 20.0272C2.73713 19.224 2.14062 18.2182 2.14062 17.0495C2.14062 15.8808 2.73713 14.8749 3.58636 14.0718C4.43334 13.2708 5.60193 12.5984 6.95784 12.056Z" fill="#D0DF00"/>
</svg>
