<svg width="14" height="14" viewBox="0 0 14 14" fill="none" xmlns="http://www.w3.org/2000/svg">
<g clip-path="url(#clip0_1000_4628)">
<path fill-rule="evenodd" clip-rule="evenodd" d="M3.65447 0.726565C4.03723 0.725883 4.40763 0.862084 4.69877 1.11058C4.99003 1.35919 5.18275 1.70378 5.24211 2.08209L5.24323 2.08923L5.56956 4.42063C5.61564 4.73098 5.56969 5.04805 5.43738 5.33258C5.30476 5.61779 5.09121 5.85772 4.8233 6.02253C4.8233 6.02253 4.82331 6.02253 4.8233 6.02253L2.69421 7.33234C3.13366 8.16653 3.69899 8.93789 4.37795 9.61685C5.05637 10.2953 5.82704 10.8602 6.66048 11.2995L7.95474 9.15983C8.11955 8.89192 8.3595 8.67837 8.64472 8.54574C8.92926 8.41343 9.24634 8.36749 9.5567 8.41357L11.8881 8.73996C12.2735 8.79444 12.6266 8.9873 12.8804 9.28244C13.1337 9.57699 13.2715 9.95345 13.2682 10.3419V11.6641C13.2682 12.0895 13.0992 12.4975 12.7984 12.7984C12.4975 13.0992 12.0895 13.2682 11.6641 13.2682H11.0807C8.33463 13.2682 5.70101 12.1773 3.75923 10.2356C1.81744 8.29378 0.726562 5.66016 0.726562 2.91406V2.33073C0.726562 1.90528 0.895572 1.49725 1.19641 1.19641C1.49725 0.895575 1.90528 0.726565 2.33073 0.726565H3.65447ZM7.45705 11.6733C8.5952 12.1441 9.82512 12.3932 11.0807 12.3932H11.6641C11.8574 12.3932 12.0429 12.3164 12.1797 12.1797C12.3164 12.0429 12.3932 11.8575 12.3932 11.6641V10.3356C12.395 10.1587 12.3323 9.98713 12.217 9.85297C12.1016 9.71885 11.9415 9.63124 11.7663 9.60645C11.7663 9.60644 11.7664 9.60645 11.7663 9.60645L9.4292 9.27925C9.2878 9.25805 9.1433 9.27887 9.01365 9.33916C8.88444 9.39925 8.77567 9.49587 8.70078 9.61709C8.70053 9.61749 8.70028 9.61789 8.70004 9.61829L7.45705 11.6733ZM2.32039 6.53499L4.36482 5.27727C4.4866 5.20235 4.58368 5.09328 4.64397 4.96364C4.70425 4.83399 4.72509 4.68949 4.7039 4.54809L4.70327 4.54389L4.37718 2.21456C4.34963 2.04384 4.26229 1.88843 4.13071 1.77612C3.99832 1.66312 3.82987 1.6012 3.65581 1.60156L3.6549 1.60157H2.33073C2.13734 1.60157 1.95188 1.67839 1.81513 1.81513C1.67839 1.95188 1.60156 2.13734 1.60156 2.33073V2.91406C1.60156 4.16866 1.85027 5.3976 2.32039 6.53499Z" fill="#D0DF00"/>
</g>
<defs>
<clipPath id="clip0_1000_4628">
<rect width="14" height="14" fill="white"/>
</clipPath>
</defs>
</svg>
